<?xml version="1.0" encoding="utf-8"?>
<!-- Generator: Adobe Illustrator 16.0.0, SVG Export Plug-In . SVG Version: 6.00 Build 0)  -->
<!DOCTYPE svg PUBLIC "-//W3C//DTD SVG 1.1//EN" "http://www.w3.org/Graphics/SVG/1.1/DTD/svg11.dtd">
<svg version="1.1" id="Layer_1" xmlns="http://www.w3.org/2000/svg" xmlns:xlink="http://www.w3.org/1999/xlink" x="0px" y="0px"
	 width="130.711px" height="100px" viewBox="-57.591 -42 130.711 100" enable-background="new -57.591 -42 130.711 100"
	 xml:space="preserve">
<path fill="#FFFFFF" d="M9.746-35.683v87.364c0,5.639-6.819,8.417-10.772,4.464l-31.313-31.31h-16.834
	c-4.627,0-8.417-3.789-8.417-8.417V-0.416c0-4.628,3.79-8.417,8.417-8.417h16.834l31.313-31.31
	C2.927-44.1,9.746-41.321,9.746-35.683z M73.12-8.578l-8.91-8.927L47.623-0.921L31.035-17.504l-8.91,8.927L38.696,8.001
	l-16.571,16.58l8.91,8.927l16.588-16.579L64.21,33.508l8.91-8.927L56.549,8.001L73.12-8.578z"/>
</svg>
