<?xml version="1.0" encoding="utf-8"?>
<!-- Generator: Adobe Illustrator 16.0.0, SVG Export Plug-In . SVG Version: 6.00 Build 0)  -->
<!DOCTYPE svg PUBLIC "-//W3C//DTD SVG 1.1//EN" "http://www.w3.org/Graphics/SVG/1.1/DTD/svg11.dtd">
<svg version="1.1" id="Layer_1" xmlns="http://www.w3.org/2000/svg" xmlns:xlink="http://www.w3.org/1999/xlink" x="0px" y="0px"
	 width="126.256px" height="100px" viewBox="-55.628 -42 126.256 100" enable-background="new -55.628 -42 126.256 100"
	 xml:space="preserve">
<path fill="#FFFFFF" d="M36.96,8.17c0,9.17-3.789,17.587-9.848,23.817l-5.639-5.639c4.628-4.71,7.488-11.023,7.488-18.179
	s-2.86-13.55-7.488-18.182l5.639-5.639C33.434-9.334,36.977-0.765,36.96,8.17z M0.937-40.142l-31.313,31.31h-16.834
	c-4.627,0-8.417,3.789-8.417,8.417v16.834c0,4.628,3.79,8.417,8.417,8.417h16.834l31.313,31.31
	c3.954,3.953,10.771,1.175,10.771-4.464v-87.364C11.708-41.321,4.89-44.1,0.937-40.142z M50.934-39.472l-5.639,5.643
	C56.44-22.736,62.688-7.641,62.63,8.084c0,16.333-6.567,31.145-17.335,41.921l5.639,5.639C63.575,43.019,70.669,25.871,70.628,8.001
	c0-18.684-7.496-35.518-19.694-47.642V-39.472z M39.064-27.603l-5.804,5.639c7.99,7.99,12.47,18.832,12.453,30.134
	c0,11.701-4.71,22.387-12.453,29.966l5.804,5.639c9.444-9.437,14.746-22.251,14.729-35.604
	C53.794-5.717,48.155-18.429,39.064-27.603z"/>
</svg>
